<?xml version="1.0" encoding="iso-8859-1"?>
<!-- Generator: Adobe Illustrator 16.0.0, SVG Export Plug-In . SVG Version: 6.00 Build 0)  -->
<!DOCTYPE svg PUBLIC "-//W3C//DTD SVG 1.1//EN" "http://www.w3.org/Graphics/SVG/1.1/DTD/svg11.dtd">
<svg version="1.1" id="Capa_1" xmlns="http://www.w3.org/2000/svg" xmlns:xlink="http://www.w3.org/1999/xlink" x="0px" y="0px"
	 width="442.995px" height="442.995px" viewBox="0 0 442.995 442.995" style="enable-background:new 0 0 442.995 442.995;"
	 xml:space="preserve">
<g>
	<g>
		<path d="M98.899,442.485h71.084v-51.363H60.266v-17.656h109.718v-23.552H60.266v-17.657h109.718v-23.548H60.266v-17.656h109.718
			v-23.552H60.266v-17.656h109.718v-23.552H60.266v-17.655h109.718v-23.55H60.266v-17.657h109.718V143.88H60.266v-17.654h109.718
			v-23.552H60.266V85.019h109.718V61.467H60.266V43.78h109.718V0.51H98.899C44.284,0.51,0,44.792,0,99.416v244.167
			C0,398.195,44.284,442.485,98.899,442.485z"/>
		<path d="M392.794,335.363c-6.944,0-13.553,1.418-19.572,3.955L332.014,70.41l-15.024,124.655l-0.461,3.791l-2.78,23.121
			c-0.101,0-0.209-0.027-0.309-0.027c-1.295,0-2.553,0.168-3.796,0.38c-1.378,0.245-2.696,0.621-3.987,1.106l3.423-28.363
			l18.506-153.554l-0.076-0.445c-6.893-44.989-17.985-44.981-24.766,0.032l-44.999,298.521c-6.18-2.713-13.005-4.248-20.193-4.248
			c-27.726,0-50.211,22.478-50.211,50.209c0,27.728,22.486,50.205,50.211,50.205c16.113,0,30.412-7.622,39.605-19.42
			c6.624-8.508,10.607-19.172,10.607-30.785c0-2.465-0.236-4.853-0.573-7.217c-0.453-3.11-1.174-6.132-2.156-9.029l10.856-64.88
			l2.048-17.02l3.065-25.447c0.577,0.4,1.21,0.693,1.819,1.03c1.768,0.993,3.663,1.783,5.694,2.252l-2.669,22.165h25.828
			l13.894,81.17c-1.13,3.122-1.947,6.388-2.433,9.759c-0.336,2.364-0.572,4.752-0.572,7.217c0,12.059,4.26,23.111,11.345,31.767
			c9.209,11.249,23.199,18.438,38.868,18.438c27.723,0,50.217-22.485,50.217-50.213
			C442.995,357.856,420.518,335.363,392.794,335.363z M237.566,415.187c-16.35,0-29.601-13.256-29.601-29.606
			c0-16.354,13.25-29.611,29.601-29.611c6.3,0,12.127,2.012,16.919,5.37c5.743,4.016,9.943,10.043,11.698,17.032
			c0.577,2.324,0.989,4.708,0.989,7.217C267.173,401.931,253.925,415.187,237.566,415.187z M325.485,251.171
			c-2.469,4.096-6.917,6.853-12.046,6.853c-1.379,0-2.689-0.261-3.956-0.633c-1.955-0.577-3.727-1.543-5.229-2.846
			c-0.766-0.661-1.463-1.395-2.067-2.208c-1.771-2.36-2.854-5.258-2.854-8.432c0-4.388,2.048-8.251,5.174-10.84
			c1.122-0.93,2.348-1.703,3.727-2.256c1.41-0.565,2.962-0.89,4.568-0.958c0.225-0.008,0.429-0.068,0.646-0.068
			c3.418,0,6.508,1.271,8.952,3.282c3.13,2.589,5.17,6.452,5.17,10.84C327.554,246.57,326.771,249.039,325.485,251.171z
			 M392.794,415.187c-16.35,0-29.606-13.256-29.606-29.606c0-2.501,0.396-4.894,0.998-7.218c1.823-7.257,6.255-13.484,12.343-17.484
			c4.677-3.09,10.255-4.909,16.266-4.909c16.354,0,29.607,13.257,29.607,29.611C422.401,401.931,409.141,415.187,392.794,415.187z"
			/>
	</g>
</g>
<g>
</g>
<g>
</g>
<g>
</g>
<g>
</g>
<g>
</g>
<g>
</g>
<g>
</g>
<g>
</g>
<g>
</g>
<g>
</g>
<g>
</g>
<g>
</g>
<g>
</g>
<g>
</g>
<g>
</g>
</svg>
