<?xml version="1.0" encoding="iso-8859-1"?>
<!-- Generator: Adobe Illustrator 19.0.0, SVG Export Plug-In . SVG Version: 6.00 Build 0)  -->
<svg version="1.1" id="Capa_1" xmlns="http://www.w3.org/2000/svg" xmlns:xlink="http://www.w3.org/1999/xlink" x="0px" y="0px"
	 viewBox="0 0 511.272 511.272" style="enable-background:new 0 0 511.272 511.272;" xml:space="preserve">
<g>
	<g>
		<g>
			<path d="M453.374,151.306l28.272-14.96c-5.317-10.048-11.293-19.733-17.888-28.992l-26.064,18.576
				C443.48,134.03,448.718,142.507,453.374,151.306z"/>
			<path d="M418.798,102.842l23.344-21.872c-7.778-8.293-16.089-16.07-24.88-23.28l-20.288,24.752
				C404.686,88.759,411.976,95.573,418.798,102.842z"/>
			<path d="M495.582,167.514h-0.032l-30.016,11.024c42.755,116.164-16.756,244.994-132.92,287.748
				C216.45,509.04,87.62,449.53,44.866,333.365S61.622,88.372,177.786,45.617c64.533-23.751,136.397-16.564,194.948,19.496
				l16.816-27.2C269.306-36.036,111.88,1.494,37.931,121.739s-36.419,277.67,83.826,351.619s277.67,36.419,351.619-83.826
				C514.395,322.835,522.578,241.015,495.582,167.514z"/>
			<path d="M239.198,215.85c0-30.928-25.072-56-56-56h-72v192h32v-80h7.44l59.2,88.88l26.624-17.76l-47.792-71.68
				C217.255,268.536,239.1,244.567,239.198,215.85z M183.198,239.85h-40v-48h40c13.255,0,24,10.745,24,24
				S196.453,239.85,183.198,239.85z"/>
			<path d="M327.198,191.85h72v-32h-48v-32h-32v32.816c-30.548,4.358-51.78,32.654-47.422,63.202
				c3.933,27.572,27.571,48.037,55.422,47.982h16c13.255,0,24,10.745,24,24s-10.745,24-24,24h-72v32h48v32h32v-32.816
				c30.548-4.358,51.78-32.654,47.422-63.202c-3.933-27.572-27.571-48.037-55.422-47.982h-16c-13.255,0-24-10.745-24-24
				S313.944,191.85,327.198,191.85z"/>
		</g>
	</g>
</g>
<g>
</g>
<g>
</g>
<g>
</g>
<g>
</g>
<g>
</g>
<g>
</g>
<g>
</g>
<g>
</g>
<g>
</g>
<g>
</g>
<g>
</g>
<g>
</g>
<g>
</g>
<g>
</g>
<g>
</g>
</svg>
